<?xml version="1.0" standalone="no"?>
<!DOCTYPE svg PUBLIC "-//W3C//DTD SVG 20010904//EN"
 "http://www.w3.org/TR/2001/REC-SVG-20010904/DTD/svg10.dtd">
<svg version="1.0" xmlns="http://www.w3.org/2000/svg"
 width="512.000000pt" height="512.000000pt" viewBox="0 0 512.000000 512.000000"
 preserveAspectRatio="xMidYMid meet">
<metadata>
Created by potrace 1.14, written by Peter Selinger 2001-2017
</metadata>
<g transform="translate(0.000000,512.000000) scale(0.100000,-0.100000)"
fill="#000000" stroke="none">
<path d="M2355 5034 c-637 -67 -1161 -318 -1588 -763 -358 -375 -583 -834
-664 -1361 -25 -161 -25 -539 0 -700 73 -470 260 -888 555 -1240 812 -967
2219 -1175 3263 -482 603 401 983 998 1096 1722 25 161 25 538 0 700 -87 562
-333 1042 -733 1430 -375 364 -842 595 -1364 675 -101 16 -476 28 -565 19z
m386 -564 c436 -45 817 -219 1148 -527 l75 -69 -385 -177 -384 -177 -634 0
-634 0 -398 153 c-219 83 -399 156 -399 161 0 16 173 180 259 245 391 298 878
439 1352 391z m-1674 -1518 l292 -233 280 -520 280 -520 105 -492 c58 -270
104 -492 102 -494 -8 -8 -244 71 -342 114 -736 322 -1203 1101 -1136 1896 19
219 86 508 115 490 7 -4 143 -112 304 -241z m3338 132 c14 -49 35 -141 46
-203 144 -843 -296 -1688 -1069 -2053 -93 -44 -289 -115 -366 -132 -26 -6 -28
-5 -23 16 3 13 52 235 107 495 l101 471 280 521 280 520 302 241 c222 178 303
237 308 227 5 -7 20 -54 34 -103z"/>
</g>
</svg>
